<?xml version="1.0" standalone="no"?>
<!DOCTYPE svg PUBLIC "-//W3C//DTD SVG 20010904//EN"
 "http://www.w3.org/TR/2001/REC-SVG-20010904/DTD/svg10.dtd">
<svg version="1.0" xmlns="http://www.w3.org/2000/svg"
 width="400.000000pt" height="400.000000pt" viewBox="0 0 400.000000 400.000000"
 preserveAspectRatio="xMidYMid meet">
<metadata>
Created by potrace 1.11, written by Peter Selinger 2001-2013
</metadata>
<g transform="translate(0.000000,400.000000) scale(0.100000,-0.100000)"
fill="#000000" stroke="none">
<path d="M1067 3884 c-4 -4 24 -15 62 -25 137 -35 454 -169 666 -282 60 -32
193 -114 295 -181 455 -301 835 -668 1152 -1111 63 -88 134 -194 158 -235 24
-41 70 -119 102 -173 33 -53 71 -123 85 -155 14 -31 47 -102 73 -157 116 -247
249 -615 251 -694 l0 -26 10 25 c14 34 7 359 -8 385 -6 11 -31 72 -54 135
-108 295 -313 681 -517 969 -96 136 -214 287 -242 311 -4 3 -41 46 -82 96 -74
88 -301 309 -403 393 -363 297 -732 524 -1085 666 -52 21 -101 43 -109 49 -16
13 -342 22 -354 10z"/>
<path d="M3025 3880 c-3 -5 -1 -10 5 -10 20 0 133 -92 310 -251 175 -159 482
-487 554 -593 33 -49 39 -35 35 72 -3 52 -9 83 -19 94 -8 8 -44 48 -80 89
-165 190 -571 578 -628 601 -27 11 -170 9 -177 -2z"/>
<path d="M82 3083 l3 -48 90 -7 c176 -12 429 -63 630 -127 387 -121 825 -387
1139 -691 557 -540 888 -1213 976 -1987 6 -51 9 -98 8 -105 -2 -9 11 -13 47
-13 l50 0 -3 90 c-7 219 -74 552 -164 820 -50 147 -63 179 -158 380 -164 348
-433 698 -767 1002 -57 51 -280 214 -380 276 -124 78 -355 197 -453 235 -173
65 -228 84 -355 117 -168 45 -361 80 -500 90 -38 3 -92 8 -118 11 l-48 5 3
-48z"/>
<path d="M80 1375 c0 -722 2 -824 16 -883 9 -37 21 -71 25 -76 5 -6 9 -18 9
-28 0 -10 5 -18 10 -18 6 0 10 -10 10 -22 0 -14 3 -18 8 -11 5 8 31 -12 80
-59 39 -39 72 -72 72 -73 0 -2 -8 -6 -18 -9 -14 -4 -14 -5 3 -4 35 1 40 -2 25
-12 -12 -8 -11 -10 8 -10 12 0 22 -4 22 -10 0 -5 8 -10 18 -10 10 0 22 -4 27
-9 6 -6 44 -17 85 -25 64 -14 190 -16 883 -16 l807 0 0 23 c0 50 -31 238 -55
341 -102 420 -306 780 -620 1090 -347 343 -787 558 -1270 621 -65 8 -125 15
-132 15 -11 0 -13 -156 -13 -815z"/>
<path d="M171 314 c0 -11 3 -14 6 -6 3 7 2 16 -1 19 -3 4 -6 -2 -5 -13z"/>
</g>
</svg>
